<svg width="1200" height="750" viewBox="0 0 1200 750" fill="none" xmlns="http://www.w3.org/2000/svg">
  <defs>
    <linearGradient id="g6" x1="0" y1="0" x2="0" y2="750" gradientUnits="userSpaceOnUse">
      <stop offset="0" stop-color="#001C2A"/>
      <stop offset="0.45" stop-color="#00354B"/>
      <stop offset="1" stop-color="#00070D"/>
    </linearGradient>
    <linearGradient id="w6" x1="0" y1="0" x2="0" y2="750" gradientUnits="userSpaceOnUse">
      <stop offset="0" stop-color="#C6A45B" stop-opacity="0.25"/>
      <stop offset="0.45" stop-color="#1CB5B6" stop-opacity="0.38"/>
      <stop offset="1" stop-color="#001118" stop-opacity="1"/>
    </linearGradient>
  </defs>
  <rect width="1200" height="750" fill="url(#g6)"/>
  <path d="M0 460C180 400 310 520 520 475C730 430 880 420 1040 460C1145 488 1185 520 1200 535V750H0V460Z" fill="url(#w6)"/>
  <g opacity="0.6" stroke-linecap="round">
    <path d="M-40 520C150 470 320 590 520 540C720 490 880 505 1160 590C1230 610 1260 620 1280 625" stroke="#1CB5B6" stroke-width="3"/>
    <path d="M-60 585C135 540 325 660 530 610C735 560 905 575 1200 670" stroke="#E8D9B7" stroke-width="2" opacity="0.85"/>
  </g>
</svg>

